{
  "asset": {
    "version": "2.0",
    "generator": "THREE.GLTFExporter"
  },
  "scenes": [
    {
      "nodes": [
        0
      ]
    }
  ],
  "scene": 0,
  "nodes": [
    {
      "children": [
        12
      ],
      "matrix": [
        0.01,
        0,
        0,
        0,
        0,
        0.01,
        0,
        0,
        0,
        0,
        0.01,
        0,
        0,
        0,
        0,
        1
      ]
    },
    {
      "matrix": [
        0.713493022031967,
        0.3945655002481791,
        -0.579004122200866,
        0,
        -0.4839366963659897,
        0.8751030075998893,
        0,
        0,
        0.5066882487507116,
        0.28020134208017683,
        0.8153246141718062,
        0,
        0,
        0,
        0,
        1
      ],
      "name": "Directional Light",
      "extensions": {
        "KHR_lights_punctual": {
          "light": 0
        }
      }
    },
    {
      "matrix": [
        1.5999999999999996,
        0,
        0,
        0,
        0,
        1.6000000000000014,
        0,
        0,
        0,
        0,
        1.6000000000000014,
        0,
        611.1510491199305,
        -206.06352146564527,
        165.8699999999997,
        1
      ],
      "name": "Parent",
      "mesh": 0
    },
    {
      "matrix": [
        0.7025338416863735,
        0,
        0,
        0,
        0,
        0.7025338416863737,
        0,
        0,
        0,
        0,
        0.7025338416863737,
        0,
        268.86508943019396,
        170.69449731789712,
        24.93183509795642,
        1
      ],
      "name": "child  1",
      "mesh": 1
    },
    {
      "matrix": [
        1,
        0,
        0,
        0,
        0,
        1,
        0,
        0,
        0,
        0,
        1,
        0,
        193.70874058248097,
        -101.7516152373284,
        44.82711783435016,
        1
      ],
      "name": "Group 3",
      "children": [
        3
      ]
    },
    {
      "matrix": [
        1.4666368925880275,
        0,
        0,
        0,
        0,
        1.4644567893055778,
        0,
        0,
        0,
        0,
        1.4666368925880306,
        0,
        -242.5458968577603,
        -142.18972365714055,
        1.4210854715202004e-13,
        1.000000000000001
      ],
      "name": "child 2",
      "mesh": 2
    },
    {
      "matrix": [
        1,
        0,
        0,
        0,
        0,
        1,
        0,
        0,
        0,
        0,
        1,
        0,
        71.31283568804629,
        -101.7516152373284,
        130.44927036856782,
        1
      ],
      "name": "Group 2",
      "children": [
        5
      ]
    },
    {
      "matrix": [
        1.7500000000000004,
        0,
        0,
        0,
        0,
        1.749999999999998,
        0,
        0,
        0,
        0,
        1.749999999999998,
        0,
        0,
        41.63705120209747,
        0,
        1
      ],
      "name": "Text",
      "mesh": 3
    },
    {
      "matrix": [
        1.75,
        0,
        0,
        0,
        0,
        1.749999999999998,
        0,
        0,
        0,
        0,
        1.749999999999998,
        0,
        -2.009885418647285,
        -228.84333998474224,
        0,
        0.9999999999999998
      ],
      "name": "Text 2",
      "mesh": 4
    },
    {
      "matrix": [
        1,
        0,
        0,
        0,
        0,
        1,
        0,
        0,
        0,
        0,
        1,
        0,
        168.11069507276716,
        -32.99961889500642,
        0,
        1
      ],
      "name": "Group",
      "children": [
        7,
        8
      ]
    },
    {
      "matrix": [
        1,
        0,
        0,
        0,
        0,
        1,
        0,
        0,
        0,
        0,
        1,
        0,
        -5,
        -3,
        -1,
        1
      ],
      "name": "Background",
      "mesh": 5
    },
    {
      "matrix": [
        1,
        0,
        0,
        0,
        0,
        1,
        -5.656680041666521e-17,
        0,
        0,
        5.656680041666521e-17,
        1,
        0,
        166.45976274455018,
        -74.76470692702834,
        1686.7348030478436,
        1
      ],
      "name": "Personal Camera",
      "camera": 0
    },
    {
      "name": "Scene 1",
      "children": [
        1,
        2,
        4,
        6,
        9,
        10,
        11
      ]
    }
  ],
  "extensions": {
    "KHR_lights_punctual": {
      "lights": [
        {
          "name": "Directional Light",
          "color": [
            1,
            1,
            1
          ],
          "intensity": 1.451,
          "type": "directional"
        }
      ]
    }
  },
  "bufferViews": [
    {
      "buffer": 0,
      "byteOffset": 0,
      "byteLength": 50700,
      "target": 34962,
      "byteStride": 12
    },
    {
      "buffer": 0,
      "byteOffset": 50700,
      "byteLength": 50700,
      "target": 34962,
      "byteStride": 12
    },
    {
      "buffer": 0,
      "byteOffset": 101400,
      "byteLength": 33800,
      "target": 34962,
      "byteStride": 8
    },
    {
      "buffer": 0,
      "byteOffset": 135200,
      "byteLength": 48384,
      "target": 34963
    },
    {
      "buffer": 0,
      "byteOffset": 183584,
      "byteLength": 50700,
      "target": 34962,
      "byteStride": 12
    },
    {
      "buffer": 0,
      "byteOffset": 234284,
      "byteLength": 50700,
      "target": 34962,
      "byteStride": 12
    },
    {
      "buffer": 0,
      "byteOffset": 284984,
      "byteLength": 33800,
      "target": 34962,
      "byteStride": 8
    },
    {
      "buffer": 0,
      "byteOffset": 318784,
      "byteLength": 48384,
      "target": 34963
    },
    {
      "buffer": 0,
      "byteOffset": 367168,
      "byteLength": 50700,
      "target": 34962,
      "byteStride": 12
    },
    {
      "buffer": 0,
      "byteOffset": 417868,
      "byteLength": 50700,
      "target": 34962,
      "byteStride": 12
    },
    {
      "buffer": 0,
      "byteOffset": 468568,
      "byteLength": 33800,
      "target": 34962,
      "byteStride": 8
    },
    {
      "buffer": 0,
      "byteOffset": 502368,
      "byteLength": 48384,
      "target": 34963
    },
    {
      "buffer": 0,
      "byteOffset": 550752,
      "byteLength": 20280,
      "target": 34962,
      "byteStride": 12
    },
    {
      "buffer": 0,
      "byteOffset": 571032,
      "byteLength": 20280,
      "target": 34962,
      "byteStride": 12
    },
    {
      "buffer": 0,
      "byteOffset": 591312,
      "byteLength": 13520,
      "target": 34962,
      "byteStride": 8
    },
    {
      "buffer": 0,
      "byteOffset": 604832,
      "byteLength": 9960,
      "target": 34963
    },
    {
      "buffer": 0,
      "byteOffset": 614792,
      "byteLength": 32964,
      "target": 34962,
      "byteStride": 12
    },
    {
      "buffer": 0,
      "byteOffset": 647756,
      "byteLength": 32964,
      "target": 34962,
      "byteStride": 12
    },
    {
      "buffer": 0,
      "byteOffset": 680720,
      "byteLength": 21976,
      "target": 34962,
      "byteStride": 8
    },
    {
      "buffer": 0,
      "byteOffset": 702696,
      "byteLength": 16220,
      "target": 34963
    },
    {
      "buffer": 0,
      "byteOffset": 718916,
      "byteLength": 48,
      "target": 34962,
      "byteStride": 12
    },
    {
      "buffer": 0,
      "byteOffset": 718964,
      "byteLength": 48,
      "target": 34962,
      "byteStride": 12
    },
    {
      "buffer": 0,
      "byteOffset": 719012,
      "byteLength": 32,
      "target": 34962,
      "byteStride": 8
    },
    {
      "buffer": 0,
      "byteOffset": 719044,
      "byteLength": 24,
      "target": 34963
    }
  ],
  "buffers": [
    {
      "byteLength": 719068,
      "uri": "data:application/octet-stream;base64,"
    }
  ],
  "accessors": [
    {
      "bufferView": 0,
      "componentType": 5126,
      "count": 4225,
      "max": [
        110,
        110,
        110
      ],
      "min": [
        -110,
        -110,
        -110
      ],
      "type": "VEC3"
    },
    {
      "bufferView": 1,
      "componentType": 5126,
      "count": 4225,
      "max": [
        1,
        1,
        1
      ],
      "min": [
        -1,
        -1,
        -1
      ],
      "type": "VEC3"
    },
    {
      "bufferView": 2,
      "componentType": 5126,
      "count": 4225,
      "max": [
        1.0078125,
        1
      ],
      "min": [
        -0.0078125,
        0
      ],
      "type": "VEC2"
    },
    {
      "bufferView": 3,
      "componentType": 5123,
      "count": 24192,
      "max": [
        4224
      ],
      "min": [
        0
      ],
      "type": "SCALAR"
    },
    {
      "bufferView": 4,
      "componentType": 5126,
      "count": 4225,
      "max": [
        61.61665725708008,
        58.35837936401367,
        61.61665725708008
      ],
      "min": [
        -61.61665725708008,
        -58.35837936401367,
        -61.61665725708008
      ],
      "type": "VEC3"
    },
    {
      "bufferView": 5,
      "componentType": 5126,
      "count": 4225,
      "max": [
        1,
        1,
        1
      ],
      "min": [
        -1,
        -1,
        -1
      ],
      "type": "VEC3"
    },
    {
      "bufferView": 6,
      "componentType": 5126,
      "count": 4225,
      "max": [
        1.0078125,
        1
      ],
      "min": [
        -0.0078125,
        0
      ],
      "type": "VEC2"
    },
    {
      "bufferView": 7,
      "componentType": 5123,
      "count": 24192,
      "max": [
        4224
      ],
      "min": [
        0
      ],
      "type": "SCALAR"
    },
    {
      "bufferView": 8,
      "componentType": 5126,
      "count": 4225,
      "max": [
        47.460269927978516,
        47.460269927978516,
        47.460269927978516
      ],
      "min": [
        -47.460269927978516,
        -47.460269927978516,
        -47.460269927978516
      ],
      "type": "VEC3"
    },
    {
      "bufferView": 9,
      "componentType": 5126,
      "count": 4225,
      "max": [
        1,
        1,
        1
      ],
      "min": [
        -1,
        -1,
        -1
      ],
      "type": "VEC3"
    },
    {
      "bufferView": 10,
      "componentType": 5126,
      "count": 4225,
      "max": [
        1.0078125,
        1
      ],
      "min": [
        -0.0078125,
        0
      ],
      "type": "VEC2"
    },
    {
      "bufferView": 11,
      "componentType": 5123,
      "count": 24192,
      "max": [
        4224
      ],
      "min": [
        0
      ],
      "type": "SCALAR"
    },
    {
      "bufferView": 12,
      "componentType": 5126,
      "count": 1690,
      "max": [
        169.29002380371094,
        124.39314270019531,
        0
      ],
      "min": [
        -184.5,
        -117.07685852050781,
        0
      ],
      "type": "VEC3"
    },
    {
      "bufferView": 13,
      "componentType": 5126,
      "count": 1690,
      "max": [
        0,
        0,
        1
      ],
      "min": [
        0,
        0,
        1
      ],
      "type": "VEC3"
    },
    {
      "bufferView": 14,
      "componentType": 5126,
      "count": 1690,
      "max": [
        1,
        1
      ],
      "min": [
        0,
        0
      ],
      "type": "VEC2"
    },
    {
      "bufferView": 15,
      "componentType": 5123,
      "count": 4980,
      "max": [
        1689
      ],
      "min": [
        0
      ],
      "type": "SCALAR"
    },
    {
      "bufferView": 16,
      "componentType": 5126,
      "count": 2747,
      "max": [
        92.81840515136719,
        15.48537540435791,
        0
      ],
      "min": [
        -93.9256820678711,
        -14.614625930786133,
        0
      ],
      "type": "VEC3"
    },
    {
      "bufferView": 17,
      "componentType": 5126,
      "count": 2747,
      "max": [
        0,
        0,
        1
      ],
      "min": [
        0,
        0,
        1
      ],
      "type": "VEC3"
    },
    {
      "bufferView": 18,
      "componentType": 5126,
      "count": 2747,
      "max": [
        1,
        1
      ],
      "min": [
        0,
        0
      ],
      "type": "VEC2"
    },
    {
      "bufferView": 19,
      "componentType": 5123,
      "count": 8109,
      "max": [
        2746
      ],
      "min": [
        0
      ],
      "type": "SCALAR"
    },
    {
      "bufferView": 20,
      "componentType": 5126,
      "count": 4,
      "max": [
        2067.11865234375,
        1988.853515625,
        0
      ],
      "min": [
        -2067.11865234375,
        -1988.853515625,
        0
      ],
      "type": "VEC3"
    },
    {
      "bufferView": 21,
      "componentType": 5126,
      "count": 4,
      "max": [
        0,
        0,
        1
      ],
      "min": [
        0,
        0,
        1
      ],
      "type": "VEC3"
    },
    {
      "bufferView": 22,
      "componentType": 5126,
      "count": 4,
      "max": [
        1,
        1
      ],
      "min": [
        0,
        0
      ],
      "type": "VEC2"
    },
    {
      "bufferView": 23,
      "componentType": 5125,
      "count": 6,
      "max": [
        3
      ],
      "min": [
        0
      ],
      "type": "SCALAR"
    }
  ],
  "materials": [
    {
      "pbrMetallicRoughness": {
        "baseColorFactor": [
          0.001627653089108007,
          0,
          0,
          1
        ],
        "metallicFactor": 0,
        "roughnessFactor": 0.9896575824813789
      },
      "doubleSided": true
    },
    {
      "pbrMetallicRoughness": {
        "baseColorFactor": [
          0.001627653089108007,
          0,
          0,
          1
        ],
        "metallicFactor": 0,
        "roughnessFactor": 0.9896575824813789
      },
      "doubleSided": true
    },
    {
      "pbrMetallicRoughness": {
        "baseColorFactor": [
          0.001627653089108007,
          0,
          0,
          1
        ],
        "metallicFactor": 0,
        "roughnessFactor": 0.9896575824813789
      },
      "doubleSided": true
    },
    {
      "pbrMetallicRoughness": {
        "baseColorFactor": [
          1,
          1,
          1,
          1
        ],
        "metallicFactor": 0.2,
        "roughnessFactor": 0.2
      },
      "doubleSided": false
    },
    {
      "pbrMetallicRoughness": {
        "baseColorFactor": [
          1,
          1,
          1,
          1
        ],
        "metallicFactor": 0.2,
        "roughnessFactor": 0.2
      },
      "doubleSided": false
    },
    {
      "pbrMetallicRoughness": {
        "baseColorFactor": [
          0.0026535588684465997,
          0.0026535588684465997,
          0.0026535588684465997,
          1
        ],
        "metallicFactor": 0,
        "roughnessFactor": 0.9963490946904218
      },
      "doubleSided": false
    }
  ],
  "meshes": [
    {
      "primitives": [
        {
          "mode": 4,
          "attributes": {
            "POSITION": 0,
            "NORMAL": 1,
            "TEXCOORD_0": 2
          },
          "extras": {
            "parameters": {
              "width": 220,
              "widthSegments": 64,
              "heightSegments": 64,
              "phiStart": 0,
              "phiLength": 6.283185307179586,
              "thetaStart": 0,
              "thetaLength": 180,
              "height": 220.00000000000006,
              "depth": 220,
              "type": "SphereGeometry"
            },
            "type": "SphereGeometry"
          },
          "indices": 3,
          "material": 0
        }
      ]
    },
    {
      "primitives": [
        {
          "mode": 4,
          "attributes": {
            "POSITION": 4,
            "NORMAL": 5,
            "TEXCOORD_0": 6
          },
          "extras": {
            "parameters": {
              "width": 123.23331680350837,
              "widthSegments": 64,
              "heightSegments": 64,
              "phiStart": 0,
              "phiLength": 6.283185307179586,
              "thetaStart": 0,
              "thetaLength": 180,
              "height": 116.71676417916137,
              "depth": 123.2333168035088,
              "type": "SphereGeometry"
            },
            "type": "SphereGeometry"
          },
          "indices": 7,
          "material": 1
        }
      ]
    },
    {
      "primitives": [
        {
          "mode": 4,
          "attributes": {
            "POSITION": 8,
            "NORMAL": 9,
            "TEXCOORD_0": 10
          },
          "extras": {
            "parameters": {
              "width": 94.92053645052779,
              "widthSegments": 64,
              "heightSegments": 64,
              "phiStart": 0,
              "phiLength": 6.283185307179586,
              "thetaStart": 0,
              "thetaLength": 180,
              "height": 94.92053645052779,
              "depth": 94.92053645052779,
              "type": "SphereGeometry"
            },
            "type": "SphereGeometry"
          },
          "indices": 11,
          "material": 2
        }
      ]
    },
    {
      "primitives": [
        {
          "mode": 4,
          "attributes": {
            "POSITION": 12,
            "NORMAL": 13,
            "TEXCOORD_0": 14
          },
          "extras": {
            "parameters": {
              "type": "TextGeometry",
              "width": 773.591352404591,
              "height": 256.34628272046723,
              "depth": 0,
              "horizontalAlign": 3,
              "verticalAlign": 1,
              "fontSize": 90,
              "lineHeight": 0.93,
              "letterSpacing": 0,
              "text": {
                "textValue": "Hello!\nI'm\nMaverick \n"
              },
              "textTransform": 1,
              "font": "23b871d0-9927-4b2a-8719-d5590e0340f4",
              "extrudeBevelSize": 0,
              "extrudeBevelSegments": 1
            },
            "type": "TextGeometry"
          },
          "indices": 15,
          "material": 3
        }
      ]
    },
    {
      "primitives": [
        {
          "mode": 4,
          "attributes": {
            "POSITION": 16,
            "NORMAL": 17,
            "TEXCOORD_0": 18
          },
          "extras": {
            "parameters": {
              "type": "TextGeometry",
              "width": 223.16751252537745,
              "height": 40.110524111729816,
              "depth": 0,
              "horizontalAlign": 3,
              "verticalAlign": 1,
              "fontSize": 14,
              "lineHeight": 1.4,
              "letterSpacing": 0.17,
              "text": {
                "textValue": "Welcome to \nmaverick's website"
              },
              "textTransform": 2,
              "font": "Inter_regular",
              "extrudeBevelSize": 0,
              "extrudeBevelSegments": 1
            },
            "type": "TextGeometry"
          },
          "indices": 19,
          "material": 4
        }
      ]
    },
    {
      "primitives": [
        {
          "mode": 4,
          "attributes": {
            "POSITION": 20,
            "NORMAL": 21,
            "TEXCOORD_0": 22
          },
          "extras": {
            "shape": {
              "points": [
                -2067.1186321000996,
                1988.853561396978,
                -2067.1186321000996,
                1988.853561396978,
                -2067.1186321000996,
                1988.853561396978,
                0,
                2067.1186321000996,
                1988.853561396978,
                2067.1186321000996,
                1988.853561396978,
                2067.1186321000996,
                1988.853561396978,
                0,
                2067.1186321000996,
                -1988.853561396978,
                2067.1186321000996,
                -1988.853561396978,
                2067.1186321000996,
                -1988.853561396978,
                0,
                -2067.1186321000996,
                -1988.853561396978,
                -2067.1186321000996,
                -1988.853561396978,
                -2067.1186321000996,
                -1988.853561396978,
                0
              ],
              "shapeHoles": [],
              "isClosed": true,
              "roundness": 0
            },
            "parameters": {
              "width": 4134.237264200199,
              "depth": 0,
              "cornerRadius": [
                0,
                0,
                0,
                0
              ],
              "cornerType": 1,
              "extrudeBevelSize": 0,
              "extrudeBevelSegments": 1,
              "height": 3977.707122793956,
              "type": "RectangleGeometry"
            },
            "ui": {
              "enabledIndieCorners": false
            },
            "type": "RectangleGeometry"
          },
          "indices": 23,
          "material": 5
        }
      ]
    }
  ],
  "cameras": [
    {
      "type": "perspective",
      "perspective": {
        "aspectRatio": 1.8515691263782867,
        "yfov": 0.7853981633974483,
        "zfar": 100000,
        "znear": 70
      },
      "name": "Camera"
    }
  ],
  "extensionsUsed": [
    "KHR_lights_punctual"
  ]
}